<svg xmlns="http://www.w3.org/2000/svg" width="30.453" height="30.452" viewBox="0 0 30.453 30.452">
  <path id="Instagram" d="M105.1,245.542h-2.651a9.37,9.37,0,1,1-18.124,0H81.673v12.885a1.171,1.171,0,0,0,1.173,1.17h21.081a1.171,1.171,0,0,0,1.173-1.17Zm0-8.2a1.172,1.172,0,0,0-1.173-1.171h-3.513a1.172,1.172,0,0,0-1.171,1.171v3.514a1.172,1.172,0,0,0,1.171,1.171h3.513a1.172,1.172,0,0,0,1.173-1.171ZM93.386,242.03a5.856,5.856,0,1,0,5.857,5.856,5.856,5.856,0,0,0-5.857-5.856M105.1,263.112H81.673A3.514,3.514,0,0,1,78.16,259.6V236.173a3.513,3.513,0,0,1,3.513-3.513H105.1a3.513,3.513,0,0,1,3.513,3.513V259.6a3.514,3.514,0,0,1-3.513,3.515" transform="translate(-78.16 -232.66)" fill="#a52336" fill-rule="evenodd"/>
</svg>
