<svg xmlns="http://www.w3.org/2000/svg" width="31.649" height="31.59" viewBox="0 0 31.649 31.59">
  <g id="Linkedin" transform="translate(0 0)">
    <path id="Tracé_33" data-name="Tracé 33" d="M232.817,242.979h6.565v21.1h-6.565ZM236.1,232.49a3.8,3.8,0,1,1-3.805,3.8,3.8,3.8,0,0,1,3.805-3.8" transform="translate(-232.296 -232.489)" fill="#a52336"/>
    <path id="Tracé_34" data-name="Tracé 34" d="M257.662,255.585h6.286v2.885h.09a6.888,6.888,0,0,1,6.205-3.408c6.64,0,7.867,4.369,7.867,10.052v11.573h-6.558V266.424c0-2.447-.042-5.595-3.408-5.595-3.413,0-3.933,2.667-3.933,5.42v10.437h-6.551Z" transform="translate(-246.462 -245.095)" fill="#a52336"/>
  </g>
</svg>
