<svg xmlns="http://www.w3.org/2000/svg" width="35.848" height="29.132" viewBox="0 0 35.848 29.132">
  <path id="Twitter" d="M268.408,397.323a14.685,14.685,0,0,1-4.224,1.158,7.373,7.373,0,0,0,3.234-4.069,14.729,14.729,0,0,1-4.67,1.785,7.361,7.361,0,0,0-12.533,6.708,20.88,20.88,0,0,1-15.159-7.685,7.363,7.363,0,0,0,2.276,9.819,7.322,7.322,0,0,1-3.331-.92c0,.031,0,.061,0,.093a7.359,7.359,0,0,0,5.9,7.211,7.372,7.372,0,0,1-3.322.126,7.363,7.363,0,0,0,6.871,5.108,14.757,14.757,0,0,1-9.134,3.148,15.049,15.049,0,0,1-1.754-.1,20.819,20.819,0,0,0,11.274,3.3c13.528,0,20.926-11.206,20.926-20.925q0-.478-.021-.951A14.938,14.938,0,0,0,268.408,397.323Z" transform="translate(-232.56 -393.874)" fill="#a52336"/>
</svg>
