<svg xmlns="http://www.w3.org/2000/svg" width="35.292" height="30.43" viewBox="0 0 35.292 30.43">
  <g id="_1181189_chat_wechat_icon" data-name="1181189_chat_wechat_icon" transform="translate(0 0)">
    <path id="Tracé_35" data-name="Tracé 35" d="M28.6,16.617a12.521,12.521,0,0,0-8.438,3.408,10.019,10.019,0,0,0-3.112,8.488c-1.28-.159-2.447-.333-3.62-.432a2.248,2.248,0,0,0-1.229.208c-1.139.643-2.231,1.368-3.525,2.177.237-1.074.391-2.014.663-2.919a1.11,1.11,0,0,0-.505-1.468C4.9,23.3,3.241,19.147,4.482,14.87c1.148-3.957,3.966-6.358,7.8-7.609a13.07,13.07,0,0,1,14.281,4.184A9.781,9.781,0,0,1,28.6,16.617ZM13.519,15.284a1.51,1.51,0,0,0-1.453-1.511,1.467,1.467,0,0,0-1.527,1.418,1.45,1.45,0,0,0,1.436,1.5A1.491,1.491,0,0,0,13.519,15.284Zm7.867-1.511a1.512,1.512,0,0,0-1.477,1.489A1.475,1.475,0,0,0,21.425,16.7a1.465,1.465,0,1,0-.039-2.93Z" transform="translate(-4.077 -6.61)" fill="#a52336"/>
    <path id="Tracé_36" data-name="Tracé 36" d="M41.6,41.477a11.126,11.126,0,0,0-3-1.261c-1.009-.105-2.07.477-3.126.585A10.446,10.446,0,0,1,27,38.037c-4.519-4.179-3.873-10.588,1.355-14.013C33,20.98,39.812,22,43.087,26.219a8.369,8.369,0,0,1-.967,11.674c-1.01.9-1.373,1.633-.725,2.815A3.353,3.353,0,0,1,41.6,41.477ZM29.789,30.045A1.221,1.221,0,1,0,29.8,27.6a1.221,1.221,0,1,0-.009,2.441ZM37.4,27.606a1.221,1.221,0,0,0-1.211,1.168A1.2,1.2,0,1,0,37.4,27.606Z" transform="translate(-9.718 -11.047)" fill="#a52336"/>
  </g>
</svg>
