<svg id="_1181189_chat_wechat_icon" data-name="1181189_chat_wechat_icon" xmlns="http://www.w3.org/2000/svg" width="18.222" height="15.712" viewBox="0 0 18.222 15.712">
  <path id="Tracé_35" data-name="Tracé 35" d="M16.737,11.777a6.465,6.465,0,0,0-4.357,1.76,5.173,5.173,0,0,0-1.607,4.383c-.661-.082-1.263-.172-1.869-.223a1.161,1.161,0,0,0-.635.107c-.588.332-1.152.706-1.82,1.124.123-.555.2-1.04.342-1.507a.573.573,0,0,0-.261-.758,5.153,5.153,0,0,1-2.246-5.788A5.729,5.729,0,0,1,8.311,6.946a6.748,6.748,0,0,1,7.373,2.161A5.05,5.05,0,0,1,16.737,11.777Zm-7.785-.688a.78.78,0,0,0-.75-.78.758.758,0,0,0-.788.732.748.748,0,0,0,.741.777A.77.77,0,0,0,8.952,11.089Zm4.062-.78a.781.781,0,0,0-.763.769.761.761,0,0,0,.783.744.757.757,0,1,0-.02-1.513Z" transform="translate(-4.077 -6.61)" fill="#fff"/>
  <path id="Tracé_36" data-name="Tracé 36" d="M33.076,32.185a5.744,5.744,0,0,0-1.55-.651,8.669,8.669,0,0,0-1.614.3,5.393,5.393,0,0,1-4.375-1.427,4.436,4.436,0,0,1,.7-7.235,5.884,5.884,0,0,1,7.609,1.133,4.321,4.321,0,0,1-.5,6.028c-.521.463-.709.843-.375,1.453A1.731,1.731,0,0,1,33.076,32.185Zm-6.1-5.9a.63.63,0,1,0,0-1.26.63.63,0,1,0,0,1.26Zm3.93-1.259a.631.631,0,0,0-.625.6.622.622,0,1,0,.625-.6Z" transform="translate(-16.616 -16.473)" fill="#fff"/>
</svg>
