<svg xmlns="http://www.w3.org/2000/svg" width="15.5" height="15.5" viewBox="0 0 15.5 15.5">
  <path id="Tracé_172" data-name="Tracé 172" d="M29.5,974.362a7.5,7.5,0,1,0,7.5,7.5A7.508,7.508,0,0,0,29.5,974.362Zm0,1.071a6.429,6.429,0,1,1-6.429,6.429A6.421,6.421,0,0,1,29.5,975.434Zm0,1.875a.536.536,0,0,0-.536.536v4.018a.654.654,0,0,0,.234.444l2.386,2.394a.533.533,0,0,0,.753-.753l-2.3-2.3v-3.8A.536.536,0,0,0,29.5,977.309Z" transform="translate(-21.75 -974.112)" fill="#6b6b6b" stroke="#6b6b6b" stroke-width="0.5"/>
</svg>
