<svg role="img" aria-label="E-mail" xmlns="http://www.w3.org/2000/svg" width="20" height="14.286" viewBox="0 0 20 14.286">
  <path id="Tracé_185" data-name="Tracé 185" d="M117.01,20.286l6.139-6.139a4.278,4.278,0,0,0,5.7,0l6.139,6.138Zm5.123-7.143L116,19.276V7.01ZM136,7.031V19.276l-6.119-6.119C131.946,11.141,133.971,9.084,136,7.031ZM134.99,6l-6.968,6.968a2.853,2.853,0,0,1-3.989.054l-.32-.309a.4.4,0,0,0-.027-.034.685.685,0,0,0-.132-.121c-2.222-2.154-4.4-4.356-6.571-6.559Z" transform="translate(-116 -6)" fill="#a52336" fill-rule="evenodd"/>
</svg>