<svg id="Fax" xmlns="http://www.w3.org/2000/svg" width="20" height="18.333" viewBox="0 0 20 18.333">
  <path id="Tracé_186" data-name="Tracé 186" d="M19.167,16H.833A.836.836,0,0,0,0,16.833V22.65a.836.836,0,0,0,.833.833h2.5V21H16.667v2.487h2.5A.836.836,0,0,0,20,22.65V16.833A.836.836,0,0,0,19.167,16Zm-5.833,2.917a.833.833,0,1,1,.833-.833A.833.833,0,0,1,13.333,18.917Zm2.5,0a.833.833,0,1,1,.833-.833A.833.833,0,0,1,15.833,18.917Z" transform="translate(0 -9.333)" fill="#a52336"/>
  <path id="Tracé_187" data-name="Tracé 187" d="M11,32.228v3.35a.836.836,0,0,0,.833.833H21a.836.836,0,0,0,.833-.833V30.99H11Z" transform="translate(-6.417 -18.078)" fill="#a52336"/>
  <path id="Tracé_188" data-name="Tracé 188" d="M21.833,2.917H20.167a1.254,1.254,0,0,1-1.25-1.25V0H11.833A.836.836,0,0,0,11,.833v5H21.833Z" transform="translate(-6.417)" fill="#a52336"/>
  <path id="Tracé_189" data-name="Tracé 189" d="M32.417,2.083h1.667L32,0V1.667A.418.418,0,0,0,32.417,2.083Z" transform="translate(-18.667)" fill="#a52336"/>
</svg>
