<svg xmlns="http://www.w3.org/2000/svg" width="40" height="40" viewBox="0 0 40 40">
  <g id="Groupe_2226" data-name="Groupe 2226" transform="translate(-106.999 -17040)">
    <text id="_15s" data-name="15s" transform="translate(137 17065)" fill="#a52336" font-size="12" font-family="OpenSans-Bold, Open Sans" font-weight="700"><tspan x="-19.664" y="0">15s</tspan></text>
    <path id="Tracé_1518" data-name="Tracé 1518" d="M8.987,37.294a1.087,1.087,0,0,0,1.6-.453l.224-.48a1.145,1.145,0,0,0-.479-1.4,17.773,17.773,0,0,1-6.4-21.281A17.192,17.192,0,0,1,31.011,6.73a17.745,17.745,0,0,1,3.265,23.563l-1.309,1.936-3.743-4.411a1.276,1.276,0,0,0-1.36-.42,1.329,1.329,0,0,0-.942,1.047L25.1,38.4a1.355,1.355,0,0,0,.3,1.127A1.313,1.313,0,0,0,26.456,40l9.953-.386a1.338,1.338,0,0,0,1.166-.809,1.363,1.363,0,0,0-.21-1.422L34.657,34.2l.93-1.177a20.571,20.571,0,0,0,3.479-18.865A20.021,20.021,0,0,0,22.375.14,19.616,19.616,0,0,0,6.73,5.151,20.494,20.494,0,0,0,8.987,37.294" transform="translate(106.999 17080) rotate(-90)" fill="#a52336"/>
  </g>
</svg>
