<svg id="Information" xmlns="http://www.w3.org/2000/svg" width="20" height="20" viewBox="0 0 20 20">
  <path id="Tracé_1519" data-name="Tracé 1519" d="M10,0A10,10,0,1,0,20,9.983,9.989,9.989,0,0,0,10,0M9.691,16.695a1.239,1.239,0,1,1,1.237-1.239,1.238,1.238,0,0,1-1.237,1.239m2.1-5.886a1.478,1.478,0,0,0-1.065,1.48,1.058,1.058,0,0,1-1.031,1.033A1.035,1.035,0,0,1,8.66,12.289a3.554,3.554,0,0,1,2.508-3.408A1.478,1.478,0,0,0,12.234,7.4,2.268,2.268,0,1,0,7.7,7.4a1.031,1.031,0,1,1-2.062,0A4.406,4.406,0,0,1,10,3.1a4.3,4.3,0,0,1,4.3,4.3,3.552,3.552,0,0,1-2.509,3.408" fill="#6b6b6b"/>
</svg>
