<svg xmlns="http://www.w3.org/2000/svg" width="20.5" height="20.5" viewBox="0 0 20.5 20.5">
  <g id="Heure" transform="translate(0.25 0.25)">
    <path id="Tracé_177" data-name="Tracé 177" d="M32,974.362a10,10,0,1,0,10,10A10.011,10.011,0,0,0,32,974.362Zm0,1.428a8.571,8.571,0,1,1-8.571,8.572A8.561,8.561,0,0,1,32,975.791Zm0,2.5a.714.714,0,0,0-.714.714v5.357a.872.872,0,0,0,.313.591l3.181,3.192a.71.71,0,0,0,1-1l-3.069-3.069v-5.067A.714.714,0,0,0,32,978.291Z" transform="translate(-22 -974.362)" fill="#a52336" stroke="#a52336" stroke-width="0.5"/>
  </g>
</svg>
