<svg xmlns="http://www.w3.org/2000/svg" width="15.723" height="15.723" viewBox="0 0 15.723 15.723">
  <path id="Instagram" d="M92.069,239.311H90.7a4.838,4.838,0,1,1-9.358,0H79.974v6.653a.6.6,0,0,0,.605.6H91.464a.6.6,0,0,0,.605-.6Zm0-4.233a.6.6,0,0,0-.605-.6H89.65a.6.6,0,0,0-.6.6v1.814a.6.6,0,0,0,.6.6h1.814a.6.6,0,0,0,.605-.6ZM86.021,237.5a3.024,3.024,0,1,0,3.024,3.024,3.023,3.023,0,0,0-3.024-3.024m6.048,10.885h-12.1a1.814,1.814,0,0,1-1.814-1.815V234.474a1.814,1.814,0,0,1,1.814-1.814h12.1a1.814,1.814,0,0,1,1.814,1.814v12.094a1.814,1.814,0,0,1-1.814,1.815" transform="translate(-78.16 -232.66)" fill="#fff" fill-rule="evenodd"/>
</svg>
