<svg xmlns="http://www.w3.org/2000/svg" width="22.033" height="20.805" viewBox="0 0 22.033 20.805">
  <g id="Like" transform="translate(0.375 0.388)">
    <path id="Tracé_170" data-name="Tracé 170" d="M17.14,961.329a1.844,1.844,0,0,0-.321.038,2,2,0,0,0-1.527,1.885,11.107,11.107,0,0,1-2.206,6.961,1.22,1.22,0,0,0-1.03-.58H7.66a1.23,1.23,0,0,0-1.221,1.221v8.793a1.229,1.229,0,0,0,1.221,1.221h4.4a1.223,1.223,0,0,0,1.015-.55,6.588,6.588,0,0,0,.733.534,3.454,3.454,0,0,0,1.481.45c1.246.129,3.289.034,8.007.053a.5.5,0,0,0,.305-.115,4.039,4.039,0,0,0,1.55-2.351.492.492,0,0,0,.237-.16,3.5,3.5,0,0,0,.8-2.794.491.491,0,0,0,.176-.137,3.4,3.4,0,0,0,.7-3.16,2.58,2.58,0,0,0,.641-1.954,2.087,2.087,0,0,0-1.481-1.786h-6.29a10.06,10.06,0,0,0-.71-6.221,2.511,2.511,0,0,0-1.763-1.336,1.738,1.738,0,0,0-.321-.015Zm1.237,1.832A9.768,9.768,0,0,1,18.9,969.3a.511.511,0,0,0,.481.58h6.7a1.16,1.16,0,0,1,.649.916,1.662,1.662,0,0,1-.511,1.282H23.286a.489.489,0,1,0,0,.977h2.876a2.4,2.4,0,0,1-.45,1.954H23.286a.489.489,0,1,0,0,.977h1.9a2.4,2.4,0,0,1-.45,1.954H23.286a.489.489,0,1,0,0,.977h.861a2.9,2.9,0,0,1-1.061,1.466c-4.54-.016-6.645.056-7.7-.053a2.311,2.311,0,0,1-1.076-.305,11.647,11.647,0,0,1-1.03-.794V971.61a12.941,12.941,0,0,0,2.992-8.32c.327-1.5,1.646-1.084,2.107-.13ZM7.66,970.61h4.4a.234.234,0,0,1,.244.244v8.793a.234.234,0,0,1-.244.244H7.66a.234.234,0,0,1-.244-.244v-8.793A.234.234,0,0,1,7.66,970.61Z" transform="translate(-6.438 -961.327)" fill="#6b6b6b" stroke="#6b6b6b" stroke-width="0.75"/>
  </g>
</svg>
