<svg xmlns="http://www.w3.org/2000/svg" width="16.341" height="16.312" viewBox="0 0 16.341 16.312">
  <g id="Linkedin" transform="translate(0 0)">
    <path id="Tracé_33" data-name="Tracé 33" d="M232.565,237.906h3.39V248.8h-3.39Zm1.7-5.416a1.964,1.964,0,1,1-1.965,1.963,1.964,1.964,0,0,1,1.965-1.963" transform="translate(-232.296 -232.49)" fill="#fff"/>
    <path id="Tracé_34" data-name="Tracé 34" d="M257.662,255.331h3.246v1.49h.047a3.557,3.557,0,0,1,3.2-1.76c3.428,0,4.062,2.256,4.062,5.19v5.975h-3.386v-5.3c0-1.263-.022-2.889-1.759-2.889-1.762,0-2.031,1.377-2.031,2.8v5.389h-3.382Z" transform="translate(-251.879 -249.916)" fill="#fff"/>
  </g>
</svg>
