<svg xmlns="http://www.w3.org/2000/svg" width="14.682" height="20.501" viewBox="0 0 14.682 20.501">
  <g id="Magazine" transform="translate(0.254 0.25)">
    <path id="Tracé_1481" data-name="Tracé 1481" d="M9.912,0a.328.328,0,0,0-.123.026l-9.572,4A.345.345,0,0,0,0,4.344V19.608A.344.344,0,0,0,.3,20,.356.356,0,0,0,.35,20H13.831a.347.347,0,0,0,.347-.344V4.344A.345.345,0,0,0,13.835,4h-3.57V.344A.346.346,0,0,0,9.918,0H9.912M9.576.863V15.427L.693,19.137V4.572ZM8.032,3.047a.362.362,0,0,0-.123.026l-5.8,2.42a.347.347,0,0,0-.211.318V9.435a.345.345,0,0,0,.345.344.355.355,0,0,0,.133-.026l5.8-2.424a.343.343,0,0,0,.215-.318V3.391a.347.347,0,0,0-.347-.344h-.01m-.334.86V6.781L2.59,8.915V6.044Zm2.566.779h3.223V19.312H2.068l7.986-3.335a.347.347,0,0,0,.156-.13h0a.346.346,0,0,0,.055-.186ZM8.035,8.923a.348.348,0,0,0-.125.027l-5.8,2.424a.345.345,0,1,0,.242.646l.025-.01,5.8-2.423a.345.345,0,0,0-.139-.665" transform="translate(0)" fill="#a52336" stroke="#a52336" stroke-width="0.5"/>
  </g>
</svg>
