<svg id="Menu_Navigation" data-name="Menu – Navigation" xmlns="http://www.w3.org/2000/svg" width="28.237" height="33.097" viewBox="0 0 28.237 33.097">
  <g id="Menu_Burger" data-name="Menu Burger" transform="translate(4.089)">
    <rect id="Rectangle_1" data-name="Rectangle 1" width="20" height="3"/>
    <rect id="Rectangle_2" data-name="Rectangle 2" width="20" height="3" transform="translate(0 8)"/>
    <rect id="Rectangle_3" data-name="Rectangle 3" width="20" height="3" transform="translate(0 16)"/>
  </g>
  <path id="Tracé_1543" data-name="Tracé 1543" d="M-11,0l-2.07-5.962h-.039q.083,1.328.083,2.49V0h-1.06V-7.139h1.646l1.982,5.679h.029l2.041-5.679h1.65V0H-7.864V-3.53q0-.532.027-1.387t.046-1.035H-7.83L-9.973,0ZM-.823,0H-4.861V-7.139H-.823v.986H-3.694v1.943H-1v.977h-2.69V-.991H-.823Zm7.49,0H5.237L1.726-5.688H1.687l.024.317q.068.908.068,1.66V0H.72V-7.139H2.136l3.5,5.659h.029q-.01-.112-.039-.818T5.6-3.4v-3.74H6.667Zm7.48-7.139V-2.52a2.74,2.74,0,0,1-.339,1.384,2.261,2.261,0,0,1-.981.913A3.411,3.411,0,0,1,11.292.1a2.873,2.873,0,0,1-2.065-.7,2.545,2.545,0,0,1-.737-1.934v-4.6H9.661v4.517a1.8,1.8,0,0,0,.41,1.3,1.691,1.691,0,0,0,1.26.42q1.65,0,1.65-1.733V-7.139Z" transform="translate(14.089 33)"/>
</svg>
