<svg xmlns="http://www.w3.org/2000/svg" width="20.5" height="20.5" viewBox="0 0 20.5 20.5">
  <g id="Pays" transform="translate(0.25 0.25)">
    <path id="Tracé_1541" data-name="Tracé 1541" d="M30.6,20.6a10,10,0,1,0-10,10A10.011,10.011,0,0,0,30.6,20.6Zm-13.2-8.47a4.841,4.841,0,0,1,1.118,2.686.457.457,0,0,1-.237.335l-.135.078c-1.494.859-3.994,2.3-2.551,4.884a2.59,2.59,0,0,1-.5,3.165,2.6,2.6,0,0,1-2.925.632A9.028,9.028,0,0,1,17.4,12.129Zm-4.7,12.894a3.333,3.333,0,0,0,.457.034,3.688,3.688,0,0,0,2.6-1.122,3.525,3.525,0,0,0,.652-4.28c-.92-1.65.391-2.578,2.2-3.618l.136-.078a1.391,1.391,0,0,0,.688-.967c.2-1.018-.588-2.391-1.1-3.159a8.952,8.952,0,0,1,8.188,1.912,6.1,6.1,0,0,0-2.356,3.3c-.588,2.426-1.206,2.549-2.905,2.549a1.817,1.817,0,0,0-1.85,1.7,2.691,2.691,0,0,0,2.3,2.862c1.651.375,1.433,3.664,1.164,5.208a9,9,0,0,1-10.175-4.342Zm11.167,4.025c.216-1.626.422-5.263-1.947-5.8A1.787,1.787,0,0,1,20.331,21.4a.9.9,0,0,1,.921-.866c2.131,0,3.132-.454,3.813-3.263A5.273,5.273,0,0,1,27.2,14.4a9.039,9.039,0,0,1-3.336,14.647Z" transform="translate(-10.598 -10.599)" fill="#a52336" stroke="#a52336" stroke-width="0.5"/>
  </g>
</svg>
