<svg id="noun_people_1867426" xmlns="http://www.w3.org/2000/svg" width="22.57" height="17.281" viewBox="0 0 22.57 17.281">
  <path id="Tracé_27" data-name="Tracé 27" d="M19.545,18.008c-.085-.134-.176-.261-.275-.388a4.882,4.882,0,0,0-.536-.614,5.2,5.2,0,0,0-.642-.55,5.878,5.878,0,0,0-3.6-1.206,5.958,5.958,0,0,0-4.74,2.335c-.106.134-.2.275-.3.423A6.011,6.011,0,0,0,8.5,21.245v2.821a1.057,1.057,0,0,0,1.058,1.058h9.875a1.057,1.057,0,0,0,1.058-1.058V21.245A5.994,5.994,0,0,0,19.545,18.008Z" transform="translate(-3.21 -7.844)" fill="#a52336"/>
  <path id="Tracé_28" data-name="Tracé 28" d="M18.848,7.924A3.174,3.174,0,1,1,15.674,4.75,3.179,3.179,0,0,1,18.848,7.924Z" transform="translate(-4.389 -4.75)" fill="#a52336"/>
  <path id="Tracé_29" data-name="Tracé 29" d="M28.348,7.924A3.174,3.174,0,1,1,25.174,4.75,3.179,3.179,0,0,1,28.348,7.924Z" transform="translate(-7.188 -4.75)" fill="#a52336"/>
  <path id="Tracé_30" data-name="Tracé 30" d="M30.165,19.835v2.821a1.057,1.057,0,0,1-1.058,1.058H25.933V21.245a7.082,7.082,0,0,0-1.107-3.8c-.106-.162-.219-.317-.31-.437a5.657,5.657,0,0,0-.649-.748q-.243-.243-.487-.444a4.579,4.579,0,0,1,6.785,4.02Z" transform="translate(-7.595 -7.844)" fill="#a52336"/>
  <path id="Tracé_31" data-name="Tracé 31" d="M7.792,15.814a7.02,7.02,0,0,0-1.079,1.114c-.12.155-.24.317-.36.508a7.009,7.009,0,0,0-1.121,3.809v2.469H2.058A1.057,1.057,0,0,1,1,22.656V19.835a4.588,4.588,0,0,1,6.792-4.02Z" transform="translate(-1 -7.844)" fill="#a52336"/>
  <path id="Tracé_32" data-name="Tracé 32" d="M9.348,7.924A3.174,3.174,0,1,1,6.174,4.75,3.179,3.179,0,0,1,9.348,7.924Z" transform="translate(-1.589 -4.75)" fill="#a52336"/>
</svg>
