<svg id="Profil" xmlns="http://www.w3.org/2000/svg" width="13.877" height="20" viewBox="0 0 13.877 20">
  <path id="Tracé_181" data-name="Tracé 181" d="M21.284,18.442c-.1-.155-.2-.3-.318-.449a5.65,5.65,0,0,0-.62-.71,6.016,6.016,0,0,0-.743-.637,6.8,6.8,0,0,0-4.163-1.4,6.9,6.9,0,0,0-5.486,2.7c-.122.155-.237.318-.351.49a6.957,6.957,0,0,0-1.1,3.747v3.265a1.223,1.223,0,0,0,1.224,1.224H21.153a1.223,1.223,0,0,0,1.224-1.224V22.189A6.937,6.937,0,0,0,21.284,18.442Z" transform="translate(-8.5 -6.678)" fill="#a52336"/>
  <path id="Tracé_182" data-name="Tracé 182" d="M19.847,8.423A3.673,3.673,0,1,1,16.173,4.75,3.679,3.679,0,0,1,19.847,8.423Z" transform="translate(-9.235 -4.75)" fill="#a52336"/>
</svg>
