<svg xmlns="http://www.w3.org/2000/svg" width="40" height="39.998" viewBox="0 0 40 39.998">
  <g id="Groupe_2225" data-name="Groupe 2225" transform="translate(-106.999 -17040.002)">
    <text id="_15s" data-name="15s" transform="translate(137 17065)" fill="#a52336" font-size="12" font-family="OpenSans-Bold, Open Sans" font-weight="700"><tspan x="-19.664" y="0">15s</tspan></text>
    <path id="Tracé_1518" data-name="Tracé 1518" d="M8.987,2.706a1.087,1.087,0,0,1,1.6.453l.224.48a1.145,1.145,0,0,1-.479,1.4,17.773,17.773,0,0,0-6.4,21.281A17.192,17.192,0,0,0,31.01,33.27,17.745,17.745,0,0,0,34.276,9.708L32.967,7.771l-3.743,4.411a1.276,1.276,0,0,1-1.36.42,1.329,1.329,0,0,1-.942-1.047L25.1,1.6A1.355,1.355,0,0,1,25.4.474,1.313,1.313,0,0,1,26.456,0l9.953.386a1.338,1.338,0,0,1,1.166.809,1.363,1.363,0,0,1-.21,1.422L34.657,5.8l.93,1.177a20.571,20.571,0,0,1,3.479,18.865A20.021,20.021,0,0,1,22.375,39.86,19.616,19.616,0,0,1,6.73,34.849,20.494,20.494,0,0,1,8.987,2.706" transform="translate(107 17080) rotate(-90)" fill="#a52336"/>
  </g>
</svg>
