<?xml version="1.0" encoding="utf-8"?>
<!-- Generator: Adobe Illustrator 16.0.0, SVG Export Plug-In . SVG Version: 6.00 Build 0)  -->
<!DOCTYPE svg PUBLIC "-//W3C//DTD SVG 1.1//EN" "http://www.w3.org/Graphics/SVG/1.1/DTD/svg11.dtd">
<svg version="1.1" id="Recherche_Navigation" xmlns="http://www.w3.org/2000/svg" xmlns:xlink="http://www.w3.org/1999/xlink"
	 x="0px" y="0px" width="55.68px" height="33.098px" viewBox="0 0 55.68 33.098" enable-background="new 0 0 55.68 33.098"
	 xml:space="preserve">
<path id="noun_Search_1969783" d="M37.669,17.738l-5.326-5.326c2.438-3.686,1.426-8.648-2.26-11.086
	c-3.686-2.437-8.648-1.425-11.086,2.261c-2.437,3.686-1.425,8.648,2.261,11.085c2.675,1.77,6.146,1.771,8.822,0.002L35.406,20
	L37.669,17.738z M19.936,8.002c0-3.166,2.567-5.732,5.733-5.731c3.167,0,5.732,2.567,5.732,5.733
	c-0.001,3.166-2.567,5.732-5.733,5.732S19.936,11.17,19.936,8.002C19.936,8.003,19.936,8.003,19.936,8.002z"/>
</svg>
