<svg id="Menu_Navigation" data-name="Menu – Navigation" xmlns="http://www.w3.org/2000/svg" width="37.461" height="31.631" viewBox="0 0 37.461 31.631">
  <g id="Menu_Burger" data-name="Menu Burger" transform="translate(10.174)">
    <rect id="Rectangle_1" data-name="Rectangle 1" width="20" height="3" transform="translate(2.122) rotate(45)" fill="#a52336"/>
    <rect id="Rectangle_148" data-name="Rectangle 148" width="20" height="3" transform="translate(16.263 2.121) rotate(135)" fill="#a52336"/>
  </g>
  <path id="Tracé_1544" data-name="Tracé 1544" d="M-17.148,0h-1.157V-7.139h4.028v.986h-2.871v2.231h2.69v.991h-2.69Zm8.2,0h-4.038V-7.139h4.038v.986h-2.871v1.943h2.69v.977h-2.69V-.991h2.871Zm2.71-3.818h.811a1.851,1.851,0,0,0,1.182-.3,1.1,1.1,0,0,0,.366-.9.967.967,0,0,0-.4-.869,2.169,2.169,0,0,0-1.191-.264h-.771Zm0,.967V0H-7.4V-7.139h2.017a3.313,3.313,0,0,1,2.046.518,1.858,1.858,0,0,1,.664,1.563,1.953,1.953,0,0,1-1.387,1.9L-2.046,0H-3.374L-5.083-2.852ZM2.075,0,0-5.962H-.034q.083,1.328.083,2.49V0h-1.06V-7.139H.635L2.617-1.46h.029L4.688-7.139h1.65V0H5.215V-3.53q0-.532.027-1.387t.046-1.035H5.249L3.105,0ZM12.256,0H8.218V-7.139h4.038v.986H9.385v1.943h2.69v.977H9.385V-.991h2.871Zm2.71-3.818h.811a1.851,1.851,0,0,0,1.182-.3,1.1,1.1,0,0,0,.366-.9.967.967,0,0,0-.4-.869,2.169,2.169,0,0,0-1.191-.264h-.771Zm0,.967V0H13.8V-7.139h2.017a3.313,3.313,0,0,1,2.046.518,1.858,1.858,0,0,1,.664,1.563,1.953,1.953,0,0,1-1.387,1.9L19.155,0H17.827L16.118-2.852Z" transform="translate(18.306 31.631)" fill="#a52336"/>
</svg>
