<svg xmlns="http://www.w3.org/2000/svg" width="24.924" height="20.047" viewBox="0 0 24.924 20.047">
  <g id="Share" transform="translate(0 0.002)">
    <path id="noun_Share_1137148" d="M58.555,44.409l-8.9-7.067a.974.974,0,0,0-1.579.762v2.833A15.115,15.115,0,0,0,34,56.039V56.2a.975.975,0,0,0,.639.914.965.965,0,0,0,.335.059.975.975,0,0,0,.744-.345l1.66-1.966a15.249,15.249,0,0,1,10.695-5.4v2.779a.973.973,0,0,0,1.579.762l8.9-7.074a.974.974,0,0,0,0-1.526Zm-8.536,5.82V48.462a.974.974,0,0,0-.974-.974,17.185,17.185,0,0,0-12.791,5.7A13.141,13.141,0,0,1,49.045,42.854a.974.974,0,0,0,.974-.974V40.12l6.366,5.052Z" transform="translate(-34 -37.132)" fill="#6b6b6b"/>
  </g>
</svg>
