<svg id="noun_student_3325490" xmlns="http://www.w3.org/2000/svg" width="22.57" height="15.185" viewBox="0 0 22.57 15.185">
  <path id="Tracé_26" data-name="Tracé 26" d="M23.35,15.549a.723.723,0,0,1-.466.676l-1.2.459V22.07a1.782,1.782,0,0,1,1.063,1.63v1.753a.723.723,0,0,1-.723.723H19.9a.723.723,0,0,1-.723-.723V23.7a1.775,1.775,0,0,1,1.059-1.627V17.237l-1.536.586-1.446.553-3.9,1.493a3.615,3.615,0,0,1-2.581,0l-3.9-1.493-1.446-.553-4.182-1.6a.723.723,0,0,1,0-1.352l9.528-3.644a3.615,3.615,0,0,1,2.581,0l9.528,3.644A.723.723,0,0,1,23.35,15.549Zm-9.995,5.765a3.615,3.615,0,0,1-2.581,0l-3.9-1.493-1.446-.553V22.29a.723.723,0,0,0,.361.629,13.779,13.779,0,0,0,6.275,1.547,13.779,13.779,0,0,0,6.275-1.543.723.723,0,0,0,.361-.629V19.268l-1.446.553Z" transform="translate(-0.779 -10.991)" fill="#a52336"/>
</svg>
