<svg xmlns="http://www.w3.org/2000/svg" width="22.548" height="19.953" viewBox="0 0 22.548 19.953">
  <path id="noun_talk_2902527" d="M5,48.776c0-4.691,5.048-8.493,11.274-8.493s11.274,3.8,11.274,8.493S22.5,57.269,16.274,57.269a14.72,14.72,0,0,1-3.246-.359l-5.5,3.3a.183.183,0,0,1-.276-.175l.568-5.64A7.417,7.417,0,0,1,5,48.776Zm15.165,0A1.638,1.638,0,1,0,21.8,47.137,1.638,1.638,0,0,0,20.165,48.776Zm-5.53,0a1.638,1.638,0,1,0,1.638-1.638A1.638,1.638,0,0,0,14.636,48.776Zm-5.53,0a1.638,1.638,0,1,0,1.638-1.638A1.638,1.638,0,0,0,9.106,48.776Z" transform="translate(-5 -40.283)" fill="#a52336"/>
</svg>
