<?xml version="1.0" encoding="utf-8"?>
<!-- Generator: Adobe Illustrator 16.0.0, SVG Export Plug-In . SVG Version: 6.00 Build 0)  -->
<!DOCTYPE svg PUBLIC "-//W3C//DTD SVG 1.1//EN" "http://www.w3.org/Graphics/SVG/1.1/DTD/svg11.dtd">
<svg version="1.1" id="Calque_1" xmlns="http://www.w3.org/2000/svg" xmlns:xlink="http://www.w3.org/1999/xlink" x="0px" y="0px"
	 width="30px" height="30px" viewBox="0 0 30 30" enable-background="new 0 0 30 30" xml:space="preserve">
<path fill="#FFFFFF" d="M21.19,9.373c-0.132-0.069-0.262-0.144-0.388-0.226c-0.365-0.24-0.696-0.524-0.993-0.843
	c-0.741-0.849-1.018-1.709-1.122-2.312h0.006c-0.085-0.501-0.051-0.826-0.044-0.826h-3.378v13.062c0,0.174,0,0.348-0.008,0.52
	c0,0.021-0.002,0.041-0.004,0.064c0,0.01,0,0.018-0.002,0.027c0,0.002,0,0.006,0,0.008c-0.071,0.953-0.612,1.803-1.442,2.275
	c-0.427,0.244-0.908,0.369-1.398,0.369c-1.574,0-2.849-1.281-2.849-2.867c0-1.584,1.275-2.869,2.849-2.869
	c0.298,0,0.594,0.048,0.876,0.14l0.004-3.439c-1.737-0.224-3.491,0.289-4.833,1.414c-0.582,0.506-1.071,1.111-1.446,1.784
	c-0.142,0.246-0.68,1.236-0.745,2.835c-0.041,0.912,0.232,1.854,0.362,2.242v0.008c0.082,0.23,0.4,1.014,0.917,1.674
	c0.418,0.529,0.911,0.992,1.463,1.381v-0.01l0.008,0.01c1.635,1.109,3.448,1.037,3.448,1.037c0.314-0.012,1.364,0,2.559-0.564
	c1.325-0.629,2.079-1.563,2.079-1.563c0.481-0.559,0.865-1.193,1.132-1.881c0.304-0.805,0.408-1.768,0.408-2.152v-6.93
	c0.04,0.025,0.586,0.385,0.586,0.385s0.786,0.505,2.012,0.833c0.881,0.233,2.066,0.283,2.066,0.283V9.891
	C22.897,9.935,22.052,9.805,21.19,9.373z"/>
</svg>
