<svg xmlns="http://www.w3.org/2000/svg" width="18.509" height="15.042" viewBox="0 0 18.509 15.042">
  <path id="Twitter" d="M251.069,395.655a7.583,7.583,0,0,1-2.181.6,3.807,3.807,0,0,0,1.67-2.1,7.606,7.606,0,0,1-2.411.922,3.8,3.8,0,0,0-6.471,3.463,10.781,10.781,0,0,1-7.827-3.968,3.8,3.8,0,0,0,1.175,5.07,3.78,3.78,0,0,1-1.72-.475c0,.016,0,.032,0,.048a3.8,3.8,0,0,0,3.046,3.723,3.806,3.806,0,0,1-1.715.065,3.8,3.8,0,0,0,3.547,2.637,7.619,7.619,0,0,1-4.716,1.625,7.77,7.77,0,0,1-.906-.053,10.8,10.8,0,0,0,16.625-9.1q0-.247-.011-.491A7.714,7.714,0,0,0,251.069,395.655Z" transform="translate(-232.56 -393.874)" fill="#fff"/>
</svg>
